# xmcd CD database file
#
# Track frame offsets:
#	150
#	16837
#	29970
#	58052
#	74562
#	91527
#	109122
#	122497
#	141277
#	152230
#	161460
#	174527
#	197230
#	218305
#
# Disc length: 3107 seconds
#
# Revision: 0
# Processed by: cddbd v1.4PL0 Copyright (c) Steve Scherf et al.
# Submitted via: CDex 1.50beta10
#
DISCID=bf0c210e
DTITLE=Home Cookin' Featuring Brenda Boykin - Home Cookin'
DYEAR=1997
DGENRE=Blues
TTITLE0=Ila Mae
TTITLE1=Lover Please
TTITLE2=Last Night
TTITLE3=Tickle Me
TTITLE4=She'll Have To Go
TTITLE5=Goodbye So Long
TTITLE6=Don't You Lie To Me
TTITLE7=Since I Met You Baby
TTITLE8=What A Price
TTITLE9=Little Joe From Chicago
TTITLE10=Aw Shucks, Hush Your Mouth
TTITLE11=T For Texas
TTITLE12=Road I Choose
TTITLE13=That's Alright Mama
EXTD=YEAR: 1997
EXTT0=
EXTT1=
EXTT2=
EXTT3=
EXTT4=
EXTT5=
EXTT6=
EXTT7=
EXTT8=
EXTT9=
EXTT10=
EXTT11=
EXTT12=
EXTT13=
PLAYORDER=
